# This file uses centimeters as units for non-parametric coordinates.

mtllib trees.mtl
g default
v 0.353369 -1.043860 -0.334738
v 0.143350 -1.043860 -0.544757
v -0.143541 -1.043860 -0.621629
v -0.430432 -1.043860 -0.544757
v -0.640450 -1.043860 -0.334738
v -0.717323 -1.043860 -0.047847
v -0.640450 -1.043860 0.239044
v -0.430432 -1.043860 0.449063
v -0.143541 -1.043860 0.525935
v 0.143350 -1.043860 0.449063
v 0.353369 -1.043860 0.239044
v 0.430241 -1.043860 -0.047847
v 0.353369 1.043860 -0.334738
v 0.143350 1.043860 -0.544757
v -0.143541 1.043860 -0.621629
v -0.430432 1.043860 -0.544757
v -0.640450 1.043860 -0.334738
v -0.717323 1.043860 -0.047847
v -0.640450 1.043860 0.239044
v -0.430432 1.043860 0.449063
v -0.143541 1.043860 0.525935
v 0.143350 1.043860 0.449063
v 0.353369 1.043860 0.239044
v 0.430241 1.043860 -0.047847
vt 0.375000 0.312500
vt 0.395833 0.312500
vt 0.416667 0.312500
vt 0.437500 0.312500
vt 0.458333 0.312500
vt 0.479167 0.312500
vt 0.500000 0.312500
vt 0.520833 0.312500
vt 0.541667 0.312500
vt 0.562500 0.312500
vt 0.583333 0.312500
vt 0.604167 0.312500
vt 0.625000 0.312500
vt 0.375000 0.688440
vt 0.395833 0.688440
vt 0.416667 0.688440
vt 0.437500 0.688440
vt 0.458333 0.688440
vt 0.479167 0.688440
vt 0.500000 0.688440
vt 0.520833 0.688440
vt 0.541667 0.688440
vt 0.562500 0.688440
vt 0.583333 0.688440
vt 0.604167 0.688440
vt 0.625000 0.688440
vt 0.635316 0.765625
vt 0.578125 0.708434
vt 0.500000 0.687500
vt 0.421875 0.708434
vt 0.364684 0.765625
vt 0.343750 0.843750
vt 0.364684 0.921875
vt 0.421875 0.979066
vt 0.500000 1.000000
vt 0.578125 0.979066
vt 0.635316 0.921875
vt 0.656250 0.843750
vn 0.707107 0.000000 -0.707107
vn 0.707107 0.000000 -0.707107
vn 0.707107 0.000000 -0.707107
vn 0.707107 0.000000 -0.707107
vn 0.258819 0.000000 -0.965926
vn 0.258819 0.000000 -0.965926
vn 0.258819 0.000000 -0.965926
vn 0.258819 0.000000 -0.965926
vn -0.258819 0.000000 -0.965926
vn -0.258819 0.000000 -0.965926
vn -0.258819 0.000000 -0.965926
vn -0.258819 0.000000 -0.965926
vn -0.707107 0.000000 -0.707107
vn -0.707107 0.000000 -0.707107
vn -0.707107 0.000000 -0.707107
vn -0.707107 0.000000 -0.707107
vn -0.965926 0.000000 -0.258819
vn -0.965926 0.000000 -0.258819
vn -0.965926 0.000000 -0.258819
vn -0.965926 0.000000 -0.258819
vn -0.965926 0.000000 0.258819
vn -0.965926 0.000000 0.258819
vn -0.965926 0.000000 0.258819
vn -0.965926 0.000000 0.258819
vn -0.707107 0.000000 0.707107
vn -0.707107 0.000000 0.707107
vn -0.707107 0.000000 0.707107
vn -0.707107 0.000000 0.707107
vn -0.258819 0.000000 0.965926
vn -0.258819 0.000000 0.965926
vn -0.258819 0.000000 0.965926
vn -0.258819 0.000000 0.965926
vn 0.258819 0.000000 0.965926
vn 0.258819 0.000000 0.965926
vn 0.258819 0.000000 0.965926
vn 0.258819 0.000000 0.965926
vn 0.707107 0.000000 0.707107
vn 0.707107 0.000000 0.707107
vn 0.707107 0.000000 0.707107
vn 0.707107 0.000000 0.707107
vn 0.965926 0.000000 0.258819
vn 0.965926 0.000000 0.258819
vn 0.965926 0.000000 0.258819
vn 0.965926 0.000000 0.258819
vn 0.965926 0.000000 -0.258819
vn 0.965926 0.000000 -0.258819
vn 0.965926 0.000000 -0.258819
vn 0.965926 0.000000 -0.258819
vn 0.000000 1.000000 0.000000
vn 0.000000 1.000000 0.000000
vn 0.000000 1.000000 0.000000
vn 0.000000 1.000000 0.000000
vn 0.000000 1.000000 0.000000
vn 0.000000 1.000000 0.000000
vn 0.000000 1.000000 0.000000
vn 0.000000 1.000000 0.000000
vn 0.000000 1.000000 0.000000
vn 0.000000 1.000000 0.000000
vn 0.000000 1.000000 0.000000
vn 0.000000 1.000000 0.000000
s off
g pCylinder1
usemtl initialShadingGroup
f 1/1/1 2/2/2 14/15/3 13/14/4
f 2/2/5 3/3/6 15/16/7 14/15/8
f 3/3/9 4/4/10 16/17/11 15/16/12
f 4/4/13 5/5/14 17/18/15 16/17/16
f 5/5/17 6/6/18 18/19/19 17/18/20
f 6/6/21 7/7/22 19/20/23 18/19/24
f 7/7/25 8/8/26 20/21/27 19/20/28
f 8/8/29 9/9/30 21/22/31 20/21/32
f 9/9/33 10/10/34 22/23/35 21/22/36
f 10/10/37 11/11/38 23/24/39 22/23/40
f 11/11/41 12/12/42 24/25/43 23/24/44
f 12/12/45 1/13/46 13/26/47 24/25/48
f 13/37/49 14/36/50 15/35/51 16/34/52 17/33/53 18/32/54 19/31/55 20/30/56 21/29/57 22/28/58 23/27/59 24/38/60
g default
v 1.011204 0.019118 -1.016793
v 0.118219 0.019118 -1.532358
v -0.897247 0.019118 -1.353304
v -1.560045 0.019118 -0.563412
v -1.560045 0.019118 0.467718
v -0.897247 0.019118 1.257610
v 0.118219 0.019118 1.436664
v 1.011204 0.019118 0.921099
v 1.363872 0.019118 -0.047847
v -0.143541 2.844710 -0.047847
vt 0.250000 0.500000
vt 0.305556 0.500000
vt 0.361111 0.500000
vt 0.416667 0.500000
vt 0.472222 0.500000
vt 0.527778 0.500000
vt 0.583333 0.500000
vt 0.638889 0.500000
vt 0.694445 0.500000
vt 0.750000 0.500000
vt 0.500000 1.000000
vn 0.446979 0.448152 -0.774190
vn 0.446979 0.448152 -0.774190
vn 0.446979 0.448152 -0.774190
vn -0.155234 0.448152 -0.880376
vn -0.155234 0.448152 -0.880376
vn -0.155234 0.448152 -0.880376
vn -0.684811 0.448152 -0.574625
vn -0.684811 0.448152 -0.574625
vn -0.684811 0.448152 -0.574625
vn -0.893957 0.448152 -0.000000
vn -0.893957 0.448152 -0.000000
vn -0.893957 0.448152 -0.000000
vn -0.684811 0.448152 0.574625
vn -0.684811 0.448152 0.574625
vn -0.684811 0.448152 0.574625
vn -0.155234 0.448152 0.880376
vn -0.155234 0.448152 0.880376
vn -0.155234 0.448152 0.880376
vn 0.446979 0.448152 0.774190
vn 0.446979 0.448152 0.774190
vn 0.446979 0.448152 0.774190
vn 0.840045 0.448152 0.305751
vn 0.840045 0.448152 0.305751
vn 0.840045 0.448152 0.305751
vn 0.840045 0.448152 -0.305751
vn 0.840045 0.448152 -0.305751
vn 0.840045 0.448152 -0.305751
s off
g pCone1
usemtl initialShadingGroup
f 25/39/61 26/40/62 34/49/63
f 26/40/64 27/41/65 34/49/66
f 27/41/67 28/42/68 34/49/69
f 28/42/70 29/43/71 34/49/72
f 29/43/73 30/44/74 34/49/75
f 30/44/76 31/45/77 34/49/78
f 31/45/79 32/46/80 34/49/81
f 32/46/82 33/47/83 34/49/84
f 33/47/85 25/48/86 34/49/87
g default
v 0.825015 0.937633 -0.854160
v 0.081913 0.937633 -1.283190
v -0.763111 0.937633 -1.134189
v -1.314662 0.937633 -0.476877
v -1.314662 0.937633 0.381183
v -0.763112 0.937633 1.038496
v 0.081913 0.937633 1.187496
v 0.825015 0.937633 0.758466
v 1.118489 0.937633 -0.047847
v -0.143541 2.294078 -0.047847
vt 0.250000 0.500000
vt 0.305556 0.500000
vt 0.361111 0.500000
vt 0.416667 0.500000
vt 0.472222 0.500000
vt 0.527778 0.500000
vt 0.583333 0.500000
vt 0.638889 0.500000
vt 0.694445 0.500000
vt 0.750000 0.500000
vt 0.500000 1.000000
vn 0.376883 0.657143 -0.652781
vn 0.376883 0.657143 -0.652781
vn 0.376883 0.657143 -0.652781
vn -0.131136 0.655515 -0.743709
vn -0.131136 0.655515 -0.743709
vn -0.131136 0.655515 -0.743709
vn -0.579458 0.654077 -0.486223
vn -0.579458 0.654077 -0.486223
vn -0.579458 0.654077 -0.486223
vn -0.756921 0.653507 -0.000000
vn -0.756921 0.653507 -0.000000
vn -0.756921 0.653507 -0.000000
vn -0.579458 0.654077 0.486223
vn -0.579458 0.654077 0.486223
vn -0.579458 0.654077 0.486223
vn -0.131136 0.655515 0.743709
vn -0.131136 0.655515 0.743709
vn -0.131136 0.655515 0.743709
vn 0.376883 0.657143 0.652781
vn 0.376883 0.657143 0.652781
vn 0.376883 0.657143 0.652781
vn 0.707442 0.658200 0.257488
vn 0.707442 0.658200 0.257488
vn 0.707442 0.658200 0.257488
vn 0.707442 0.658200 -0.257487
vn 0.707442 0.658200 -0.257487
vn 0.707442 0.658200 -0.257487
s off
g pCone2
usemtl initialShadingGroup
f 35/50/88 36/51/89 44/60/90
f 36/51/91 37/52/92 44/60/93
f 37/52/94 38/53/95 44/60/96
f 38/53/97 39/54/98 44/60/99
f 39/54/100 40/55/101 44/60/102
f 40/55/103 41/56/104 44/60/105
f 41/56/106 42/57/107 44/60/108
f 42/57/109 43/58/110 44/60/111
f 43/58/112 35/59/113 44/60/114
g default
v 1.310307 -1.043860 -3.492633
v 1.100288 -1.043860 -3.702651
v 0.813397 -1.043860 -3.779524
v 0.526506 -1.043860 -3.702651
v 0.316487 -1.043860 -3.492633
v 0.239615 -1.043860 -3.205742
v 0.316487 -1.043860 -2.918851
v 0.526506 -1.043860 -2.708832
v 0.813397 -1.043860 -2.631960
v 1.100288 -1.043860 -2.708832
v 1.310307 -1.043860 -2.918851
v 1.387179 -1.043860 -3.205742
v 1.310307 1.043860 -3.492633
v 1.100288 1.043860 -3.702651
v 0.813397 1.043860 -3.779524
v 0.526506 1.043860 -3.702651
v 0.316487 1.043860 -3.492633
v 0.239615 1.043860 -3.205742
v 0.316487 1.043860 -2.918851
v 0.526506 1.043860 -2.708832
v 0.813397 1.043860 -2.631960
v 1.100288 1.043860 -2.708832
v 1.310307 1.043860 -2.918851
v 1.387179 1.043860 -3.205742
vt 0.375000 0.312500
vt 0.395833 0.312500
vt 0.416667 0.312500
vt 0.437500 0.312500
vt 0.458333 0.312500
vt 0.479167 0.312500
vt 0.500000 0.312500
vt 0.520833 0.312500
vt 0.541667 0.312500
vt 0.562500 0.312500
vt 0.583333 0.312500
vt 0.604167 0.312500
vt 0.625000 0.312500
vt 0.375000 0.688440
vt 0.395833 0.688440
vt 0.416667 0.688440
vt 0.437500 0.688440
vt 0.458333 0.688440
vt 0.479167 0.688440
vt 0.500000 0.688440
vt 0.520833 0.688440
vt 0.541667 0.688440
vt 0.562500 0.688440
vt 0.583333 0.688440
vt 0.604167 0.688440
vt 0.625000 0.688440
vt 0.635316 0.765625
vt 0.578125 0.708434
vt 0.500000 0.687500
vt 0.421875 0.708434
vt 0.364684 0.765625
vt 0.343750 0.843750
vt 0.364684 0.921875
vt 0.421875 0.979066
vt 0.500000 1.000000
vt 0.578125 0.979066
vt 0.635316 0.921875
vt 0.656250 0.843750
vn 0.707107 0.000000 -0.707107
vn 0.707107 0.000000 -0.707107
vn 0.707107 0.000000 -0.707107
vn 0.707107 0.000000 -0.707107
vn 0.258819 0.000000 -0.965926
vn 0.258819 0.000000 -0.965926
vn 0.258819 0.000000 -0.965926
vn 0.258819 0.000000 -0.965926
vn -0.258819 0.000000 -0.965926
vn -0.258819 0.000000 -0.965926
vn -0.258819 0.000000 -0.965926
vn -0.258819 0.000000 -0.965926
vn -0.707107 0.000000 -0.707107
vn -0.707107 0.000000 -0.707107
vn -0.707107 0.000000 -0.707107
vn -0.707107 0.000000 -0.707107
vn -0.965926 0.000000 -0.258819
vn -0.965926 0.000000 -0.258819
vn -0.965926 0.000000 -0.258819
vn -0.965926 0.000000 -0.258819
vn -0.965926 0.000000 0.258819
vn -0.965926 0.000000 0.258819
vn -0.965926 0.000000 0.258819
vn -0.965926 0.000000 0.258819
vn -0.707107 0.000000 0.707107
vn -0.707107 0.000000 0.707107
vn -0.707107 0.000000 0.707107
vn -0.707107 0.000000 0.707107
vn -0.258819 0.000000 0.965926
vn -0.258819 0.000000 0.965926
vn -0.258819 0.000000 0.965926
vn -0.258819 0.000000 0.965926
vn 0.258819 0.000000 0.965926
vn 0.258819 0.000000 0.965926
vn 0.258819 0.000000 0.965926
vn 0.258819 0.000000 0.965926
vn 0.707107 0.000000 0.707107
vn 0.707107 0.000000 0.707107
vn 0.707107 0.000000 0.707107
vn 0.707107 0.000000 0.707107
vn 0.965926 0.000000 0.258819
vn 0.965926 0.000000 0.258819
vn 0.965926 0.000000 0.258819
vn 0.965926 0.000000 0.258819
vn 0.965926 0.000000 -0.258819
vn 0.965926 0.000000 -0.258819
vn 0.965926 0.000000 -0.258819
vn 0.965926 0.000000 -0.258819
vn 0.000000 1.000000 0.000000
vn 0.000000 1.000000 0.000000
vn 0.000000 1.000000 0.000000
vn 0.000000 1.000000 0.000000
vn 0.000000 1.000000 0.000000
vn 0.000000 1.000000 0.000000
vn 0.000000 1.000000 0.000000
vn 0.000000 1.000000 0.000000
vn 0.000000 1.000000 0.000000
vn 0.000000 1.000000 0.000000
vn 0.000000 1.000000 0.000000
vn 0.000000 1.000000 0.000000
s off
g pCylinder2
usemtl initialShadingGroup
f 45/61/115 46/62/116 58/75/117 57/74/118
f 46/62/119 47/63/120 59/76/121 58/75/122
f 47/63/123 48/64/124 60/77/125 59/76/126
f 48/64/127 49/65/128 61/78/129 60/77/130
f 49/65/131 50/66/132 62/79/133 61/78/134
f 50/66/135 51/67/136 63/80/137 62/79/138
f 51/67/139 52/68/140 64/81/141 63/80/142
f 52/68/143 53/69/144 65/82/145 64/81/146
f 53/69/147 54/70/148 66/83/149 65/82/150
f 54/70/151 55/71/152 67/84/153 66/83/154
f 55/71/155 56/72/156 68/85/157 67/84/158
f 56/72/159 45/73/160 57/86/161 68/85/162
f 57/97/163 58/96/164 59/95/165 60/94/166 61/93/167 62/92/168 63/91/169 64/90/170 65/89/171 66/88/172 67/87/173 68/98/174
g default
v 1.968142 0.019118 -4.174687
v 1.075157 0.019118 -4.690253
v 0.059691 0.019118 -4.511199
v -0.603107 0.019118 -3.721307
v -0.603107 0.019118 -2.690176
v 0.059691 0.019118 -1.900284
v 1.075156 0.019118 -1.721230
v 1.968142 0.019118 -2.236796
v 2.320809 0.019118 -3.205742
v 0.813397 2.844710 -3.205742
vt 0.250000 0.500000
vt 0.305556 0.500000
vt 0.361111 0.500000
vt 0.416667 0.500000
vt 0.472222 0.500000
vt 0.527778 0.500000
vt 0.583333 0.500000
vt 0.638889 0.500000
vt 0.694445 0.500000
vt 0.750000 0.500000
vt 0.500000 1.000000
vn 0.446979 0.448152 -0.774190
vn 0.446979 0.448152 -0.774190
vn 0.446979 0.448152 -0.774190
vn -0.155234 0.448152 -0.880376
vn -0.155234 0.448152 -0.880376
vn -0.155234 0.448152 -0.880376
vn -0.684811 0.448152 -0.574625
vn -0.684811 0.448152 -0.574625
vn -0.684811 0.448152 -0.574625
vn -0.893957 0.448152 -0.000000
vn -0.893957 0.448152 -0.000000
vn -0.893957 0.448152 -0.000000
vn -0.684811 0.448152 0.574625
vn -0.684811 0.448152 0.574625
vn -0.684811 0.448152 0.574625
vn -0.155234 0.448152 0.880376
vn -0.155234 0.448152 0.880376
vn -0.155234 0.448152 0.880376
vn 0.446979 0.448152 0.774190
vn 0.446979 0.448152 0.774190
vn 0.446979 0.448152 0.774190
vn 0.840045 0.448152 0.305751
vn 0.840045 0.448152 0.305751
vn 0.840045 0.448152 0.305751
vn 0.840045 0.448152 -0.305751
vn 0.840045 0.448152 -0.305751
vn 0.840045 0.448152 -0.305751
s off
g pCone3
usemtl initialShadingGroup
f 69/99/175 70/100/176 78/109/177
f 70/100/178 71/101/179 78/109/180
f 71/101/181 72/102/182 78/109/183
f 72/102/184 73/103/185 78/109/186
f 73/103/187 74/104/188 78/109/189
f 74/104/190 75/105/191 78/109/192
f 75/105/193 76/106/194 78/109/195
f 76/106/196 77/107/197 78/109/198
f 77/107/199 69/108/200 78/109/201
g default
v 1.825775 0.937633 -4.050332
v 1.047396 0.937633 -4.499730
v 0.162256 0.937633 -4.343656
v -0.415479 0.937633 -3.655139
v -0.415479 0.937633 -2.756344
v 0.162256 0.937633 -2.067827
v 1.047396 0.937633 -1.911753
v 1.825775 0.937633 -2.361151
v 2.133181 0.937633 -3.205742
v 0.813397 2.294078 -3.205742
vt 0.250000 0.500000
vt 0.305556 0.500000
vt 0.361111 0.500000
vt 0.416667 0.500000
vt 0.472222 0.500000
vt 0.527778 0.500000
vt 0.583333 0.500000
vt 0.638889 0.500000
vt 0.694445 0.500000
vt 0.750000 0.500000
vt 0.500000 1.000000
vn 0.369360 0.674012 -0.639751
vn 0.369360 0.674012 -0.639751
vn 0.369360 0.674012 -0.639751
vn -0.128463 0.672841 -0.728548
vn -0.128463 0.672841 -0.728548
vn -0.128463 0.672841 -0.728548
vn -0.567429 0.671808 -0.476129
vn -0.567429 0.671808 -0.476129
vn -0.567429 0.671808 -0.476129
vn -0.741096 0.671399 -0.000000
vn -0.741096 0.671399 -0.000000
vn -0.741096 0.671399 -0.000000
vn -0.567429 0.671808 0.476129
vn -0.567429 0.671808 0.476129
vn -0.567429 0.671808 0.476129
vn -0.128463 0.672841 0.728548
vn -0.128463 0.672841 0.728548
vn -0.128463 0.672841 0.728548
vn 0.369360 0.674012 0.639751
vn 0.369360 0.674012 0.639751
vn 0.369360 0.674012 0.639751
vn 0.693517 0.674773 0.252420
vn 0.693517 0.674773 0.252420
vn 0.693517 0.674773 0.252420
vn 0.693517 0.674773 -0.252419
vn 0.693517 0.674773 -0.252419
vn 0.693517 0.674773 -0.252419
s off
g pCone4
usemtl initialShadingGroup
f 79/110/202 80/111/203 88/120/204
f 80/111/205 81/112/206 88/120/207
f 81/112/208 82/113/209 88/120/210
f 82/113/211 83/114/212 88/120/213
f 83/114/214 84/115/215 88/120/216
f 84/115/217 85/116/218 88/120/219
f 85/116/220 86/117/221 88/120/222
f 86/117/223 87/118/224 88/120/225
f 87/118/226 79/119/227 88/120/228
g default
v -2.708832 -1.043860 -1.865838
v -2.918851 -1.043860 -2.075857
v -3.205742 -1.043860 -2.152729
v -3.492633 -1.043860 -2.075857
v -3.702651 -1.043860 -1.865838
v -3.779524 -1.043860 -1.578947
v -3.702651 -1.043860 -1.292056
v -3.492633 -1.043860 -1.082038
v -3.205742 -1.043860 -1.005165
v -2.918851 -1.043860 -1.082038
v -2.708832 -1.043860 -1.292056
v -2.631960 -1.043860 -1.578947
v -2.708832 1.043860 -1.865838
v -2.918851 1.043860 -2.075857
v -3.205742 1.043860 -2.152729
v -3.492633 1.043860 -2.075857
v -3.702651 1.043860 -1.865838
v -3.779524 1.043860 -1.578947
v -3.702651 1.043860 -1.292056
v -3.492633 1.043860 -1.082038
v -3.205742 1.043860 -1.005165
v -2.918851 1.043860 -1.082038
v -2.708832 1.043860 -1.292056
v -2.631960 1.043860 -1.578947
vt 0.375000 0.312500
vt 0.395833 0.312500
vt 0.416667 0.312500
vt 0.437500 0.312500
vt 0.458333 0.312500
vt 0.479167 0.312500
vt 0.500000 0.312500
vt 0.520833 0.312500
vt 0.541667 0.312500
vt 0.562500 0.312500
vt 0.583333 0.312500
vt 0.604167 0.312500
vt 0.625000 0.312500
vt 0.375000 0.688440
vt 0.395833 0.688440
vt 0.416667 0.688440
vt 0.437500 0.688440
vt 0.458333 0.688440
vt 0.479167 0.688440
vt 0.500000 0.688440
vt 0.520833 0.688440
vt 0.541667 0.688440
vt 0.562500 0.688440
vt 0.583333 0.688440
vt 0.604167 0.688440
vt 0.625000 0.688440
vt 0.635316 0.765625
vt 0.578125 0.708434
vt 0.500000 0.687500
vt 0.421875 0.708434
vt 0.364684 0.765625
vt 0.343750 0.843750
vt 0.364684 0.921875
vt 0.421875 0.979066
vt 0.500000 1.000000
vt 0.578125 0.979066
vt 0.635316 0.921875
vt 0.656250 0.843750
vn 0.707107 0.000000 -0.707107
vn 0.707107 0.000000 -0.707107
vn 0.707107 0.000000 -0.707107
vn 0.707107 0.000000 -0.707107
vn 0.258819 0.000000 -0.965926
vn 0.258819 0.000000 -0.965926
vn 0.258819 0.000000 -0.965926
vn 0.258819 0.000000 -0.965926
vn -0.258819 0.000000 -0.965926
vn -0.258819 0.000000 -0.965926
vn -0.258819 0.000000 -0.965926
vn -0.258819 0.000000 -0.965926
vn -0.707107 0.000000 -0.707107
vn -0.707107 0.000000 -0.707107
vn -0.707107 0.000000 -0.707107
vn -0.707107 0.000000 -0.707107
vn -0.965926 0.000000 -0.258819
vn -0.965926 0.000000 -0.258819
vn -0.965926 0.000000 -0.258819
vn -0.965926 0.000000 -0.258819
vn -0.965926 0.000000 0.258819
vn -0.965926 0.000000 0.258819
vn -0.965926 0.000000 0.258819
vn -0.965926 0.000000 0.258819
vn -0.707107 0.000000 0.707107
vn -0.707107 0.000000 0.707107
vn -0.707107 0.000000 0.707107
vn -0.707107 0.000000 0.707107
vn -0.258819 0.000000 0.965926
vn -0.258819 0.000000 0.965926
vn -0.258819 0.000000 0.965926
vn -0.258819 0.000000 0.965926
vn 0.258819 0.000000 0.965926
vn 0.258819 0.000000 0.965926
vn 0.258819 0.000000 0.965926
vn 0.258819 0.000000 0.965926
vn 0.707107 0.000000 0.707107
vn 0.707107 0.000000 0.707107
vn 0.707107 0.000000 0.707107
vn 0.707107 0.000000 0.707107
vn 0.965926 0.000000 0.258819
vn 0.965926 0.000000 0.258819
vn 0.965926 0.000000 0.258819
vn 0.965926 0.000000 0.258819
vn 0.965926 0.000000 -0.258819
vn 0.965926 0.000000 -0.258819
vn 0.965926 0.000000 -0.258819
vn 0.965926 0.000000 -0.258819
vn 0.000000 1.000000 0.000000
vn 0.000000 1.000000 0.000000
vn 0.000000 1.000000 0.000000
vn 0.000000 1.000000 0.000000
vn 0.000000 1.000000 0.000000
vn 0.000000 1.000000 0.000000
vn 0.000000 1.000000 0.000000
vn 0.000000 1.000000 0.000000
vn 0.000000 1.000000 0.000000
vn 0.000000 1.000000 0.000000
vn 0.000000 1.000000 0.000000
vn 0.000000 1.000000 0.000000
s off
g pCylinder4
usemtl initialShadingGroup
f 89/121/229 90/122/230 102/135/231 101/134/232
f 90/122/233 91/123/234 103/136/235 102/135/236
f 91/123/237 92/124/238 104/137/239 103/136/240
f 92/124/241 93/125/242 105/138/243 104/137/244
f 93/125/245 94/126/246 106/139/247 105/138/248
f 94/126/249 95/127/250 107/140/251 106/139/252
f 95/127/253 96/128/254 108/141/255 107/140/256
f 96/128/257 97/129/258 109/142/259 108/141/260
f 97/129/261 98/130/262 110/143/263 109/142/264
f 98/130/265 99/131/266 111/144/267 110/143/268
f 99/131/269 100/132/270 112/145/271 111/144/272
f 100/132/273 89/133/274 101/146/275 112/145/276
f 101/157/277 102/156/278 103/155/279 104/154/280 105/153/281 106/152/282 107/151/283 108/150/284 109/149/285 110/148/286 111/147/287 112/158/288
g default
v -2.050997 0.019118 -2.547893
v -2.943982 0.019118 -3.063459
v -3.959448 0.019118 -2.884405
v -4.622246 0.019118 -2.094513
v -4.622246 0.019118 -1.063382
v -3.959448 0.019118 -0.273490
v -2.943982 0.019118 -0.094436
v -2.050997 0.019118 -0.610001
v -1.698329 0.019118 -1.578947
v -3.205742 2.844710 -1.578947
vt 0.250000 0.500000
vt 0.305556 0.500000
vt 0.361111 0.500000
vt 0.416667 0.500000
vt 0.472222 0.500000
vt 0.527778 0.500000
vt 0.583333 0.500000
vt 0.638889 0.500000
vt 0.694445 0.500000
vt 0.750000 0.500000
vt 0.500000 1.000000
vn 0.446979 0.448152 -0.774190
vn 0.446979 0.448152 -0.774190
vn 0.446979 0.448152 -0.774190
vn -0.155234 0.448152 -0.880376
vn -0.155234 0.448152 -0.880376
vn -0.155234 0.448152 -0.880376
vn -0.684811 0.448152 -0.574625
vn -0.684811 0.448152 -0.574625
vn -0.684811 0.448152 -0.574625
vn -0.893957 0.448152 -0.000000
vn -0.893957 0.448152 -0.000000
vn -0.893957 0.448152 -0.000000
vn -0.684811 0.448152 0.574625
vn -0.684811 0.448152 0.574625
vn -0.684811 0.448152 0.574625
vn -0.155234 0.448152 0.880376
vn -0.155234 0.448152 0.880376
vn -0.155234 0.448152 0.880376
vn 0.446979 0.448152 0.774190
vn 0.446979 0.448152 0.774190
vn 0.446979 0.448152 0.774190
vn 0.840045 0.448152 0.305752
vn 0.840045 0.448152 0.305752
vn 0.840045 0.448152 0.305752
vn 0.840045 0.448152 -0.305751
vn 0.840045 0.448152 -0.305751
vn 0.840045 0.448152 -0.305751
s off
g pCone7
usemtl initialShadingGroup
f 113/159/289 114/160/290 122/169/291
f 114/160/292 115/161/293 122/169/294
f 115/161/295 116/162/296 122/169/297
f 116/162/298 117/163/299 122/169/300
f 117/163/301 118/164/302 122/169/303
f 118/164/304 119/165/305 122/169/306
f 119/165/307 120/166/308 122/169/309
f 120/166/310 121/167/311 122/169/312
f 121/167/313 113/168/314 122/169/315
g default
v -2.210781 0.937633 -2.408325
v -2.975139 0.937633 -2.849627
v -3.844335 0.937633 -2.696364
v -4.411663 0.937633 -2.020250
v -4.411663 0.937633 -1.137645
v -3.844335 0.937633 -0.461531
v -2.975139 0.937633 -0.308268
v -2.210781 0.937633 -0.749570
v -1.908912 0.937633 -1.578947
v -3.205742 2.294078 -1.578947
vt 0.250000 0.500000
vt 0.305556 0.500000
vt 0.361111 0.500000
vt 0.416667 0.500000
vt 0.472222 0.500000
vt 0.527778 0.500000
vt 0.583333 0.500000
vt 0.638889 0.500000
vt 0.694445 0.500000
vt 0.750000 0.500000
vt 0.500000 1.000000
vn 0.372337 0.667429 -0.644906
vn 0.372337 0.667429 -0.644906
vn 0.372337 0.667429 -0.644906
vn -0.129520 0.666083 -0.734546
vn -0.129520 0.666083 -0.734546
vn -0.129520 0.666083 -0.734546
vn -0.572188 0.664894 -0.480122
vn -0.572188 0.664894 -0.480122
vn -0.572188 0.664894 -0.480122
vn -0.747357 0.664423 -0.000000
vn -0.747357 0.664423 -0.000000
vn -0.747357 0.664423 -0.000000
vn -0.572188 0.664894 0.480122
vn -0.572188 0.664894 0.480122
vn -0.572188 0.664894 0.480122
vn -0.129520 0.666083 0.734546
vn -0.129520 0.666083 0.734546
vn -0.129520 0.666083 0.734546
vn 0.372337 0.667429 0.644906
vn 0.372337 0.667429 0.644906
vn 0.372337 0.667429 0.644906
vn 0.699026 0.668304 0.254425
vn 0.699026 0.668304 0.254425
vn 0.699026 0.668304 0.254425
vn 0.699026 0.668304 -0.254425
vn 0.699026 0.668304 -0.254425
vn 0.699026 0.668304 -0.254425
s off
g pCone8
usemtl initialShadingGroup
f 123/170/316 124/171/317 132/180/318
f 124/171/319 125/172/320 132/180/321
f 125/172/322 126/173/323 132/180/324
f 126/173/325 127/174/326 132/180/327
f 127/174/328 128/175/329 132/180/330
f 128/175/331 129/176/332 132/180/333
f 129/176/334 130/177/335 132/180/336
f 130/177/337 131/178/338 132/180/339
f 131/178/340 123/179/341 132/180/342
