# This file uses centimeters as units for non-parametric coordinates.

mtllib Nuclear_PP_ver1_NO_TXT.mtl
g default
v -2.284362 -0.063884 -2.422297
v -4.686969 -0.063884 -0.676701
v -3.944523 -0.063884 -0.137283
v -3.026809 -0.063884 -0.137283
v -2.284363 -0.063884 -0.676702
v -2.000773 -0.063884 -1.549500
v -2.514211 0.648287 -2.255303
v -4.457120 0.648287 -0.843696
v -3.856729 0.648287 -0.407486
v -3.114603 0.648287 -0.407486
v -2.514211 0.648287 -0.843696
v -2.284882 0.648287 -1.549500
v -2.697532 1.493747 -2.122113
v -4.273800 1.493747 -0.976887
v -3.786706 1.493747 -0.622993
v -3.184625 1.493747 -0.622993
v -2.697532 1.493747 -0.976887
v -2.511479 1.493747 -1.549500
v -2.660676 2.364503 -2.148890
v -4.310656 2.364503 -0.950109
v -3.800784 2.364503 -0.579666
v -3.170548 2.364503 -0.579666
v -2.660676 2.364503 -0.950109
v -2.465923 2.364503 -1.549500
v -2.572533 2.784799 -2.212929
v -3.136880 2.784799 -2.622951
v -3.834452 2.784799 -2.622951
v -4.398798 2.784799 -2.212929
v -4.614360 2.784799 -1.549500
v -4.398798 2.784799 -0.886070
v -3.834451 2.784799 -0.476048
v -3.136880 2.784799 -0.476048
v -2.572533 2.784799 -0.886070
v -2.356972 2.784799 -1.549500
v -2.694139 2.784799 -2.124578
v -3.183330 2.784799 -2.479996
v -3.788002 2.784799 -2.479995
v -4.277193 2.784799 -2.124577
v -4.464047 2.784799 -1.549500
v -4.277192 2.784799 -0.974421
v -3.788002 2.784799 -0.619004
v -3.183329 2.784799 -0.619004
v -2.694139 2.784799 -0.974422
v -2.507285 2.784799 -1.549500
v -2.848277 -0.081519 -2.012589
v -3.242205 -0.081519 -2.298795
v -3.729127 -0.081519 -2.298795
v -4.123055 -0.081519 -2.012589
v -4.273522 -0.081519 -1.549500
v -4.123054 -0.081519 -1.086409
v -3.729126 -0.081519 -0.800204
v -1.120449 -0.063411 1.376164
v 0.658679 -0.063411 1.376164
v -1.120449 1.542541 1.376164
v 0.658679 1.542541 1.376164
v -1.120449 1.542541 -1.376164
v 0.658679 1.542541 -1.376164
v 0.658679 -0.063411 -1.376164
v -0.286353 1.534039 -1.091817
v -0.772658 1.534039 -0.249512
v -0.286353 1.534039 -0.249512
v -0.043200 1.534039 -0.670665
v -0.318929 1.777192 -1.035394
v -0.740082 1.777192 -0.305936
v -0.318929 1.777192 -0.305935
v -0.108353 1.777192 -0.670665
v -0.407929 1.955192 -0.881241
v -0.772658 1.955192 -0.670665
v -0.651082 1.955192 -0.460088
v -0.407929 1.955192 -0.460088
v -0.286353 1.955192 -0.670665
v -0.529506 2.020344 -0.670665
v -0.286353 1.534039 0.211884
v -0.772658 1.534039 1.054190
v -0.286353 1.534039 1.054190
v -0.043200 1.534039 0.633037
v -0.318929 1.777192 0.268308
v -0.740082 1.777192 0.997766
v -0.318929 1.777192 0.997766
v -0.108353 1.777192 0.633037
v -0.407929 1.955192 0.422461
v -0.772658 1.955192 0.633037
v -0.651082 1.955192 0.843614
v -0.407929 1.955192 0.843614
v -0.286353 1.955192 0.633037
v -0.529506 2.020344 0.633037
v 0.634559 -0.020284 1.284729
v 1.342602 -0.020284 1.284729
v 0.634559 0.618840 1.284729
v 1.342602 0.618840 1.284729
v 0.634559 0.618840 -1.255920
v 1.342602 0.618840 -1.255920
v 1.342602 -0.020284 -1.255920
v 0.624466 0.573097 0.338589
v 0.954795 0.573097 0.338589
v 0.624466 1.142460 0.338589
v 0.954795 1.142460 0.338589
v 0.624466 1.142460 -1.253643
v 0.954795 1.142460 -1.253643
v 0.954795 0.573097 -1.253643
v -2.284362 -0.063884 0.665542
v -3.944523 -0.063884 2.950557
v -3.026809 -0.063884 2.950557
v -2.284363 -0.063884 2.411138
v -2.000773 -0.063884 1.538340
v -2.514211 0.648287 0.832537
v -3.856729 0.648287 2.680354
v -3.114603 0.648287 2.680354
v -2.514211 0.648287 2.244143
v -2.284882 0.648287 1.538340
v -2.697532 1.493747 0.965727
v -3.786706 1.493747 2.464847
v -3.184625 1.493747 2.464847
v -2.697532 1.493747 2.110953
v -2.511479 1.493747 1.538340
v -2.660676 2.364503 0.938950
v -3.800784 2.364503 2.508174
v -3.170548 2.364503 2.508174
v -2.660676 2.364503 2.137730
v -2.465923 2.364503 1.538340
v -2.572533 2.784799 0.874910
v -3.136880 2.784799 0.464888
v -3.834452 2.784799 0.464888
v -4.398798 2.784799 0.874910
v -4.614360 2.784799 1.538340
v -4.398798 2.784799 2.201770
v -3.834451 2.784799 2.611792
v -3.136880 2.784799 2.611792
v -2.572533 2.784799 2.201770
v -2.356972 2.784799 1.538340
v -2.694139 2.784799 0.963262
v -3.183330 2.784799 0.607844
v -3.788002 2.784799 0.607844
v -4.277193 2.784799 0.963262
v -4.464047 2.784799 1.538340
v -4.277192 2.784799 2.113418
v -3.788002 2.784799 2.468836
v -3.183329 2.784799 2.468836
v -2.694139 2.784799 2.113418
v -2.507285 2.784799 1.538340
v -2.848277 -0.081519 1.075250
v -3.242205 -0.081519 0.789044
v -3.729127 -0.081519 0.789044
v -4.123055 -0.081519 1.075250
v -4.273522 -0.081519 1.538340
v -4.123054 -0.081519 2.001430
v -3.729126 -0.081519 2.287635
vt 0.500000 0.312500
vt 0.525000 0.312500
vt 0.550000 0.312500
vt 0.575000 0.312500
vt 0.600000 0.312500
vt 0.625000 0.312500
vt 0.500000 0.406485
vt 0.525000 0.406485
vt 0.550000 0.406485
vt 0.575000 0.406485
vt 0.600000 0.406485
vt 0.625000 0.406485
vt 0.500000 0.500470
vt 0.525000 0.500470
vt 0.550000 0.500470
vt 0.575000 0.500470
vt 0.600000 0.500470
vt 0.625000 0.500470
vt 0.500000 0.594455
vt 0.525000 0.594455
vt 0.550000 0.594455
vt 0.575000 0.594455
vt 0.600000 0.594455
vt 0.625000 0.594455
vt 0.500000 0.688440
vt 0.525000 0.688440
vt 0.550000 0.688440
vt 0.575000 0.688440
vt 0.600000 0.688440
vt 0.625000 0.688440
vt 0.626409 0.751909
vt 0.548284 0.695147
vt 0.451716 0.695147
vt 0.373591 0.751909
vt 0.343750 0.843750
vt 0.373591 0.935591
vt 0.451716 0.992353
vt 0.548284 0.992353
vt 0.626409 0.935591
vt 0.656250 0.843750
vt 0.563204 0.797829
vt 0.524142 0.769449
vt 0.475858 0.769449
vt 0.436796 0.797829
vt 0.421875 0.843750
vt 0.436796 0.889671
vt 0.475858 0.918051
vt 0.524142 0.918051
vt 0.563204 0.889671
vt 0.578125 0.843750
vt 0.563204 0.889671
vt 0.524142 0.918051
vt 0.475858 0.918051
vt 0.436796 0.889671
vt 0.421875 0.843750
vt 0.436796 0.797829
vt 0.475858 0.769449
vt 0.375000 0.000000
vt 0.625000 0.000000
vt 0.625000 0.250000
vt 0.375000 0.250000
vt 0.625000 0.500000
vt 0.375000 0.500000
vt 0.875000 0.000000
vt 0.875000 0.250000
vt 0.500000 0.500000
vt 0.500000 0.666667
vt 0.666667 0.500000
vt 0.666667 0.666667
vt 0.833333 0.500000
vt 0.833333 0.666667
vt 1.000000 0.500000
vt 1.000000 0.666667
vt 0.333333 0.833333
vt 0.500000 0.833333
vt 0.666667 0.833333
vt 0.833333 0.833333
vt 1.000000 0.833333
vt 0.416667 1.000000
vt 0.583333 1.000000
vt 0.750000 1.000000
vt 0.916667 1.000000
vt 0.500000 0.500000
vt 0.500000 0.666667
vt 0.666667 0.500000
vt 0.666667 0.666667
vt 0.833333 0.500000
vt 0.833333 0.666667
vt 1.000000 0.500000
vt 1.000000 0.666667
vt 0.333333 0.833333
vt 0.500000 0.833333
vt 0.666667 0.833333
vt 0.833333 0.833333
vt 1.000000 0.833333
vt 0.416667 1.000000
vt 0.583333 1.000000
vt 0.750000 1.000000
vt 0.916667 1.000000
vt 0.375000 0.000000
vt 0.625000 0.000000
vt 0.625000 0.250000
vt 0.375000 0.250000
vt 0.625000 0.500000
vt 0.375000 0.500000
vt 0.875000 0.000000
vt 0.875000 0.250000
vt 0.375000 0.000000
vt 0.625000 0.000000
vt 0.625000 0.250000
vt 0.375000 0.250000
vt 0.625000 0.500000
vt 0.375000 0.500000
vt 0.875000 0.000000
vt 0.875000 0.250000
vt 0.525000 0.312500
vt 0.525000 0.406485
vt 0.550000 0.312500
vt 0.550000 0.406485
vt 0.575000 0.312500
vt 0.575000 0.406485
vt 0.600000 0.312500
vt 0.600000 0.406485
vt 0.625000 0.312500
vt 0.625000 0.406485
vt 0.525000 0.500470
vt 0.550000 0.500470
vt 0.575000 0.500470
vt 0.600000 0.500470
vt 0.625000 0.500470
vt 0.525000 0.594455
vt 0.550000 0.594455
vt 0.575000 0.594455
vt 0.600000 0.594455
vt 0.625000 0.594455
vt 0.525000 0.688440
vt 0.550000 0.688440
vt 0.575000 0.688440
vt 0.600000 0.688440
vt 0.625000 0.688440
vt 0.626409 0.935591
vt 0.548284 0.992353
vt 0.524142 0.918051
vt 0.563204 0.889671
vt 0.451716 0.992353
vt 0.475858 0.918051
vt 0.373591 0.935591
vt 0.436796 0.889671
vt 0.343750 0.843750
vt 0.421875 0.843750
vt 0.373591 0.751909
vt 0.436796 0.797829
vt 0.451716 0.695147
vt 0.475858 0.769449
vt 0.548284 0.695147
vt 0.524142 0.769449
vt 0.626409 0.751909
vt 0.563204 0.797829
vt 0.656250 0.843750
vt 0.578125 0.843750
vt 0.524142 0.918051
vt 0.563204 0.889671
vt 0.475858 0.918051
vt 0.436796 0.889671
vt 0.421875 0.843750
vt 0.436796 0.797829
vt 0.475858 0.769449
vn -0.549560 0.354734 0.756404
vn -0.549560 0.354734 0.756404
vn -0.560462 0.301348 0.771409
vn -0.560462 0.301348 0.771409
vn 0.000000 0.354734 0.934967
vn 0.000000 0.354734 0.934967
vn 0.000000 0.301348 0.953514
vn 0.000000 0.301348 0.953514
vn 0.549560 0.354734 0.756404
vn 0.549560 0.354734 0.756404
vn 0.560462 0.301349 0.771409
vn 0.560462 0.301349 0.771409
vn 0.889207 0.354734 0.288921
vn 0.889207 0.354734 0.288921
vn 0.906846 0.301348 0.294652
vn 0.906846 0.301348 0.294652
vn 0.889207 0.354735 -0.288921
vn 0.889207 0.354735 -0.288921
vn 0.906846 0.301349 -0.294652
vn 0.906846 0.301349 -0.294652
vn -0.584852 0.099767 0.804981
vn -0.584852 0.099767 0.804981
vn 0.000000 0.099767 0.995011
vn 0.000000 0.099767 0.995011
vn 0.584853 0.099767 0.804981
vn 0.584853 0.099767 0.804981
vn 0.946312 0.099767 0.307475
vn 0.946312 0.099767 0.307475
vn 0.946312 0.099767 -0.307475
vn 0.946312 0.099767 -0.307475
vn -0.581556 -0.145201 0.800443
vn -0.581556 -0.145201 0.800443
vn 0.000000 -0.145201 0.989402
vn 0.000000 -0.145201 0.989402
vn 0.581556 -0.145201 0.800443
vn 0.581556 -0.145201 0.800443
vn 0.940977 -0.145201 0.305742
vn 0.940977 -0.145201 0.305742
vn 0.940978 -0.145201 -0.305742
vn 0.940978 -0.145201 -0.305742
vn -0.570697 -0.239369 0.785498
vn -0.570697 -0.239369 0.785498
vn 0.000000 -0.239369 0.970929
vn 0.000000 -0.239369 0.970929
vn 0.570698 -0.239369 0.785498
vn 0.570698 -0.239369 0.785498
vn 0.923408 -0.239370 0.300033
vn 0.923408 -0.239370 0.300033
vn 0.923408 -0.239369 -0.300033
vn 0.923408 -0.239369 -0.300033
vn 0.000000 1.000000 -0.000000
vn 0.000000 1.000000 -0.000000
vn 0.000000 1.000000 -0.000000
vn 0.000000 1.000000 -0.000000
vn 0.000000 1.000000 0.000000
vn 0.000000 1.000000 0.000000
vn 0.000000 1.000000 -0.000000
vn 0.000000 1.000000 -0.000000
vn 0.000000 1.000000 -0.000000
vn 0.000000 1.000000 -0.000000
vn 0.000000 1.000000 -0.000000
vn 0.000000 1.000000 -0.000000
vn 0.000000 1.000000 -0.000001
vn 0.000000 1.000000 -0.000001
vn 0.000000 1.000000 -0.000000
vn 0.000000 1.000000 -0.000000
vn 0.000000 1.000000 -0.000000
vn 0.000000 1.000000 -0.000000
vn 0.000000 1.000000 -0.000000
vn 0.000000 1.000000 -0.000000
vn -0.586615 0.063091 0.807405
vn -0.586615 0.063091 0.807405
vn -0.586615 0.063091 0.807405
vn -0.586615 0.063091 0.807405
vn 0.000001 0.063091 0.998008
vn 0.000001 0.063091 0.998008
vn 0.000001 0.063091 0.998008
vn 0.000001 0.063091 0.998008
vn 0.586614 0.063091 0.807405
vn 0.586614 0.063091 0.807405
vn 0.586614 0.063091 0.807405
vn 0.586614 0.063091 0.807405
vn 0.949162 0.063091 0.308402
vn 0.949162 0.063091 0.308402
vn 0.949162 0.063091 0.308402
vn 0.949162 0.063091 0.308402
vn 0.949161 0.063091 -0.308402
vn 0.949161 0.063091 -0.308402
vn 0.949161 0.063091 -0.308402
vn 0.949161 0.063091 -0.308402
vn 0.586614 0.063091 -0.807405
vn 0.586614 0.063091 -0.807405
vn 0.586614 0.063091 -0.807405
vn 0.586614 0.063091 -0.807405
vn 0.000000 0.000000 1.000000
vn 0.000000 0.000000 1.000000
vn 0.000000 0.000000 1.000000
vn 0.000000 0.000000 1.000000
vn 0.000000 1.000000 0.000000
vn 0.000000 1.000000 0.000000
vn 0.000000 1.000000 0.000000
vn 0.000000 1.000000 0.000000
vn 1.000000 0.000000 0.000000
vn 1.000000 0.000000 0.000000
vn 1.000000 0.000000 0.000000
vn 1.000000 0.000000 0.000000
vn -0.000000 0.226045 0.974117
vn -0.000000 0.226045 0.974117
vn -0.000000 0.226045 0.974117
vn -0.000000 0.226045 0.974117
vn 0.843610 0.226045 0.487059
vn 0.843610 0.226045 0.487059
vn 0.843610 0.226045 0.487059
vn 0.843610 0.226045 0.487059
vn 0.843610 0.226045 -0.487058
vn 0.843610 0.226045 -0.487058
vn 0.843610 0.226045 -0.487058
vn 0.843610 0.226045 -0.487058
vn 0.000000 0.654654 0.755929
vn 0.000000 0.654654 0.755929
vn 0.000000 0.654654 0.755929
vn 0.000000 0.654654 0.755929
vn 0.654654 0.654654 0.377964
vn 0.654654 0.654654 0.377964
vn 0.654654 0.654654 0.377964
vn 0.654654 0.654654 0.377964
vn 0.654654 0.654654 -0.377964
vn 0.654654 0.654654 -0.377964
vn 0.654654 0.654654 -0.377964
vn 0.654654 0.654654 -0.377964
vn -0.255977 0.955319 0.147788
vn -0.255977 0.955319 0.147788
vn -0.255977 0.955319 0.147788
vn 0.000000 0.955319 0.295576
vn 0.000000 0.955319 0.295576
vn 0.000000 0.955319 0.295576
vn 0.255977 0.955319 0.147788
vn 0.255977 0.955319 0.147788
vn 0.255977 0.955319 0.147788
vn 0.255977 0.955319 -0.147788
vn 0.255977 0.955319 -0.147788
vn 0.255977 0.955319 -0.147788
vn 0.000000 0.226045 0.974117
vn 0.000000 0.226045 0.974117
vn 0.000000 0.226045 0.974117
vn 0.000000 0.226045 0.974117
vn 0.843610 0.226045 0.487059
vn 0.843610 0.226045 0.487059
vn 0.843610 0.226045 0.487059
vn 0.843610 0.226045 0.487059
vn 0.843610 0.226045 -0.487058
vn 0.843610 0.226045 -0.487058
vn 0.843610 0.226045 -0.487058
vn 0.843610 0.226045 -0.487058
vn 0.000000 0.654654 0.755929
vn 0.000000 0.654654 0.755929
vn 0.000000 0.654654 0.755929
vn 0.000000 0.654654 0.755929
vn 0.654654 0.654654 0.377964
vn 0.654654 0.654654 0.377964
vn 0.654654 0.654654 0.377964
vn 0.654654 0.654654 0.377964
vn 0.654654 0.654654 -0.377964
vn 0.654654 0.654654 -0.377964
vn 0.654654 0.654654 -0.377964
vn 0.654654 0.654654 -0.377964
vn -0.255977 0.955319 0.147788
vn -0.255977 0.955319 0.147788
vn -0.255977 0.955319 0.147788
vn 0.000000 0.955319 0.295576
vn 0.000000 0.955319 0.295576
vn 0.000000 0.955319 0.295576
vn 0.255977 0.955319 0.147788
vn 0.255977 0.955319 0.147788
vn 0.255977 0.955319 0.147788
vn 0.255977 0.955319 -0.147788
vn 0.255977 0.955319 -0.147788
vn 0.255977 0.955319 -0.147788
vn 0.000000 0.000000 1.000000
vn 0.000000 0.000000 1.000000
vn 0.000000 0.000000 1.000000
vn 0.000000 0.000000 1.000000
vn 0.000000 1.000000 0.000000
vn 0.000000 1.000000 0.000000
vn 0.000000 1.000000 0.000000
vn 0.000000 1.000000 0.000000
vn 1.000000 0.000000 0.000000
vn 1.000000 0.000000 0.000000
vn 1.000000 0.000000 0.000000
vn 1.000000 0.000000 0.000000
vn 0.000000 0.000000 1.000000
vn 0.000000 0.000000 1.000000
vn 0.000000 0.000000 1.000000
vn 0.000000 0.000000 1.000000
vn 0.000000 1.000000 0.000000
vn 0.000000 1.000000 0.000000
vn 0.000000 1.000000 0.000000
vn 0.000000 1.000000 0.000000
vn 1.000000 0.000000 0.000000
vn 1.000000 0.000000 0.000000
vn 1.000000 0.000000 0.000000
vn 1.000000 0.000000 0.000000
vn 0.000000 0.354734 0.934967
vn 0.000000 0.354734 0.934967
vn 0.000000 0.301348 0.953514
vn 0.000000 0.301348 0.953514
vn 0.549560 0.354734 0.756404
vn 0.549560 0.354734 0.756404
vn 0.560462 0.301349 0.771409
vn 0.560462 0.301349 0.771409
vn 0.889207 0.354734 0.288921
vn 0.889207 0.354734 0.288921
vn 0.906846 0.301348 0.294652
vn 0.906846 0.301348 0.294652
vn 0.889207 0.354734 -0.288921
vn 0.889207 0.354734 -0.288921
vn 0.906846 0.301349 -0.294652
vn 0.906846 0.301349 -0.294652
vn 0.000000 0.099767 0.995011
vn 0.000000 0.099767 0.995011
vn 0.584853 0.099767 0.804980
vn 0.584853 0.099767 0.804980
vn 0.946312 0.099767 0.307475
vn 0.946312 0.099767 0.307475
vn 0.946312 0.099767 -0.307475
vn 0.946312 0.099767 -0.307475
vn 0.000000 -0.145201 0.989402
vn 0.000000 -0.145201 0.989402
vn 0.581556 -0.145201 0.800443
vn 0.581556 -0.145201 0.800443
vn 0.940977 -0.145201 0.305742
vn 0.940977 -0.145201 0.305742
vn 0.940978 -0.145201 -0.305742
vn 0.940978 -0.145201 -0.305742
vn 0.000000 -0.239369 0.970929
vn 0.000000 -0.239369 0.970929
vn 0.570698 -0.239369 0.785498
vn 0.570698 -0.239369 0.785498
vn 0.923408 -0.239370 0.300033
vn 0.923408 -0.239370 0.300033
vn 0.923408 -0.239368 -0.300033
vn 0.923408 -0.239368 -0.300033
vn 0.000000 1.000000 -0.000000
vn 0.000000 1.000000 -0.000000
vn 0.000000 1.000000 -0.000000
vn 0.000000 1.000000 -0.000000
vn 0.000000 1.000000 0.000000
vn 0.000000 1.000000 0.000000
vn 0.000000 1.000000 -0.000000
vn 0.000000 1.000000 -0.000000
vn 0.000000 1.000000 -0.000000
vn 0.000000 1.000000 -0.000000
vn 0.000000 1.000000 -0.000000
vn 0.000000 1.000000 -0.000000
vn 0.000000 1.000000 -0.000001
vn 0.000000 1.000000 -0.000001
vn 0.000000 1.000000 -0.000000
vn 0.000000 1.000000 -0.000000
vn 0.000000 1.000000 -0.000000
vn 0.000000 1.000000 -0.000000
vn 0.000000 1.000000 -0.000000
vn 0.000000 1.000000 -0.000000
vn -0.586614 0.063091 0.807405
vn -0.586614 0.063091 0.807405
vn -0.586614 0.063091 0.807405
vn -0.586614 0.063091 0.807405
vn 0.000000 0.063091 0.998008
vn 0.000000 0.063091 0.998008
vn 0.000000 0.063091 0.998008
vn 0.000000 0.063091 0.998008
vn 0.586615 0.063091 0.807405
vn 0.586615 0.063091 0.807405
vn 0.586615 0.063091 0.807405
vn 0.586615 0.063091 0.807405
vn 0.949162 0.063091 0.308402
vn 0.949162 0.063091 0.308402
vn 0.949162 0.063091 0.308402
vn 0.949162 0.063091 0.308402
vn 0.949161 0.063091 -0.308402
vn 0.949161 0.063091 -0.308402
vn 0.949161 0.063091 -0.308402
vn 0.949161 0.063091 -0.308402
vn 0.586614 0.063091 -0.807405
vn 0.586614 0.063091 -0.807405
vn 0.586614 0.063091 -0.807405
vn 0.586614 0.063091 -0.807405
s 1
g polySurface1
usemtl initialShadingGroup
f 2/1/1 3/2/2 9/8/3 8/7/4
s 2
f 3/2/5 4/3/6 10/9/7 9/8/8
s 3
f 4/3/9 5/4/10 11/10/11 10/9/12
s 4
f 5/4/13 6/5/14 12/11/15 11/10/16
s 5
f 6/5/17 1/6/18 7/12/19 12/11/20
s 1
f 8/7/4 9/8/3 15/14/21 14/13/22
s 2
f 9/8/8 10/9/7 16/15/23 15/14/24
s 3
f 10/9/12 11/10/11 17/16/25 16/15/26
s 4
f 11/10/16 12/11/15 18/17/27 17/16/28
s 5
f 12/11/20 7/12/19 13/18/29 18/17/30
s 1
f 14/13/22 15/14/21 21/20/31 20/19/32
s 2
f 15/14/24 16/15/23 22/21/33 21/20/34
s 3
f 16/15/26 17/16/25 23/22/35 22/21/36
s 4
f 17/16/28 18/17/27 24/23/37 23/22/38
s 5
f 18/17/30 13/18/29 19/24/39 24/23/40
s 1
f 20/19/32 21/20/31 31/26/41 30/25/42
s 2
f 21/20/34 22/21/33 32/27/43 31/26/44
s 3
f 22/21/36 23/22/35 33/28/45 32/27/46
s 4
f 23/22/38 24/23/37 34/29/47 33/28/48
s 5
f 24/23/40 19/24/39 25/30/49 34/29/50
s 6
f 25/39/51 26/38/52 36/48/53 35/49/54
f 26/38/52 27/37/55 37/47/56 36/48/53
f 27/37/55 28/36/57 38/46/58 37/47/56
f 28/36/57 29/35/59 39/45/60 38/46/58
f 29/35/59 30/34/61 40/44/62 39/45/60
f 30/34/61 31/33/63 41/43/64 40/44/62
f 31/33/63 32/32/65 42/42/66 41/43/64
f 32/32/65 33/31/67 43/41/68 42/42/66
f 33/31/67 34/40/69 44/50/70 43/41/68
f 34/40/69 25/39/51 35/49/54 44/50/70
s off
f 35/49/71 36/48/72 46/52/73 45/51/74
f 36/48/75 37/47/76 47/53/77 46/52/78
f 37/47/79 38/46/80 48/54/81 47/53/82
f 38/46/83 39/45/84 49/55/85 48/54/86
f 39/45/87 40/44/88 50/56/89 49/55/90
f 40/44/91 41/43/92 51/57/93 50/56/94
f 52/58/95 53/59/96 55/60/97 54/61/98
f 54/61/99 55/60/100 57/62/101 56/63/102
f 53/59/103 58/64/104 57/65/105 55/60/106
f 60/66/107 61/68/108 65/69/109 64/67/110
f 61/68/111 62/70/112 66/71/113 65/69/114
f 62/70/115 59/72/116 63/73/117 66/71/118
f 64/67/119 65/69/120 70/76/121 69/75/122
f 65/69/123 66/71/124 71/77/125 70/76/126
f 66/71/127 63/73/128 67/78/129 71/77/130
f 68/74/131 69/75/132 72/79/133
f 69/75/134 70/76/135 72/80/136
f 70/76/137 71/77/138 72/81/139
f 71/77/140 67/78/141 72/82/142
f 74/83/143 75/85/144 79/86/145 78/84/146
f 75/85/147 76/87/148 80/88/149 79/86/150
f 76/87/151 73/89/152 77/90/153 80/88/154
f 78/84/155 79/86/156 84/93/157 83/92/158
f 79/86/159 80/88/160 85/94/161 84/93/162
f 80/88/163 77/90/164 81/95/165 85/94/166
f 82/91/167 83/92/168 86/96/169
f 83/92/170 84/93/171 86/97/172
f 84/93/173 85/94/174 86/98/175
f 85/94/176 81/95/177 86/99/178
f 87/100/179 88/101/180 90/102/181 89/103/182
f 89/103/183 90/102/184 92/104/185 91/105/186
f 88/101/187 93/106/188 92/107/189 90/102/190
f 94/108/191 95/109/192 97/110/193 96/111/194
f 96/111/195 97/110/196 99/112/197 98/113/198
f 95/109/199 100/114/200 99/115/201 97/110/202
s 7
f 102/116/203 103/118/204 108/119/205 107/117/206
s 8
f 103/118/207 104/120/208 109/121/209 108/119/210
s 9
f 104/120/211 105/122/212 110/123/213 109/121/214
s 10
f 105/122/215 101/124/216 106/125/217 110/123/218
s 7
f 107/117/206 108/119/205 113/127/219 112/126/220
s 8
f 108/119/210 109/121/209 114/128/221 113/127/222
s 9
f 109/121/214 110/123/213 115/129/223 114/128/224
s 10
f 110/123/218 106/125/217 111/130/225 115/129/226
s 7
f 112/126/220 113/127/219 118/132/227 117/131/228
s 8
f 113/127/222 114/128/221 119/133/229 118/132/230
s 9
f 114/128/224 115/129/223 120/134/231 119/133/232
s 10
f 115/129/226 111/130/225 116/135/233 120/134/234
s 7
f 117/131/228 118/132/227 128/137/235 127/136/236
s 8
f 118/132/230 119/133/229 129/138/237 128/137/238
s 9
f 119/133/232 120/134/231 130/139/239 129/138/240
s 10
f 120/134/234 116/135/233 121/140/241 130/139/242
s 11
f 121/141/243 122/142/244 132/143/245 131/144/246
f 122/142/244 123/145/247 133/146/248 132/143/245
f 123/145/247 124/147/249 134/148/250 133/146/248
f 124/147/249 125/149/251 135/150/252 134/148/250
f 125/149/251 126/151/253 136/152/254 135/150/252
f 126/151/253 127/153/255 137/154/256 136/152/254
f 127/153/255 128/155/257 138/156/258 137/154/256
f 128/155/257 129/157/259 139/158/260 138/156/258
f 129/157/259 130/159/261 140/160/262 139/158/260
f 130/159/261 121/141/243 131/144/246 140/160/262
s off
f 131/144/263 132/143/264 142/161/265 141/162/266
f 132/143/267 133/146/268 143/163/269 142/161/270
f 133/146/271 134/148/272 144/164/273 143/163/274
f 134/148/275 135/150/276 145/165/277 144/164/278
f 135/150/279 136/152/280 146/166/281 145/165/282
f 136/152/283 137/154/284 147/167/285 146/166/286
