# This file uses centimeters as units for non-parametric coordinates.

mtllib Oil_Drill_ver2_NO_TXT.mtl
g default
v -1.074639 1.574774 1.047330
v 1.074639 1.574774 1.047330
v -1.074639 2.402701 1.047330
v 1.074639 2.402701 1.047330
v -1.074639 2.402701 -1.047330
v 1.074639 2.402701 -1.047330
v -1.074639 1.574774 -1.047330
v 1.074639 1.574774 -1.047330
v -0.500000 2.211359 0.500000
v 0.500000 2.211359 0.500000
v -0.138939 5.441645 0.138939
v 0.138939 5.441645 0.138939
v -0.138939 5.441645 -0.138939
v 0.138939 5.441645 -0.138939
v -0.500000 2.211359 -0.500000
v 0.202462 4.207382 0.202462
v -0.202462 4.207382 0.202462
v -0.202462 4.207382 -0.202462
v 0.344433 3.084761 0.344433
v -0.344433 3.084761 0.344433
v -0.344433 3.084761 -0.344433
v 0.702411 -0.194913 0.921822
v 0.901820 -0.194913 0.921822
v 0.702411 2.020338 0.921822
v 0.901820 2.020338 0.921822
v 0.702411 2.020338 0.722413
v 0.702411 -0.194913 0.722413
v 0.702411 -0.194913 -0.722295
v 0.901820 -0.194913 -0.722295
v 0.702411 2.020338 -0.722295
v 0.901820 2.020338 -0.722295
v 0.702411 2.020338 -0.921705
v 0.702411 -0.194913 -0.921705
v -0.901705 -0.194913 -0.722295
v -0.702295 -0.194913 -0.722295
v -0.901705 2.020338 -0.722295
v -0.702295 2.020338 -0.722295
v -0.901705 2.020338 -0.921705
v -0.901705 -0.194913 -0.921705
v -0.901705 -0.194913 0.921822
v -0.702295 -0.194913 0.921822
v -0.901705 2.020338 0.921822
v -0.702295 2.020338 0.921822
v -0.901705 2.020338 0.722413
v -0.901705 -0.194913 0.722413
v -0.050637 -0.092479 -0.050637
v -0.071612 -0.092479 0.000000
v -0.050637 -0.092479 0.050637
v 0.000000 -0.092479 0.071612
v 0.050637 -0.092479 0.050637
v -0.050637 2.046293 -0.050637
v -0.071612 2.046293 0.000000
v -0.050637 2.046293 0.050637
v 0.000000 2.046293 0.071612
v 0.050637 2.046293 0.050637
vt 0.375000 0.000000
vt 0.625000 0.000000
vt 0.375000 0.250000
vt 0.625000 0.250000
vt 0.375000 0.500000
vt 0.625000 0.500000
vt 0.375000 0.750000
vt 0.625000 0.750000
vt 0.375000 1.000000
vt 0.625000 1.000000
vt 0.125000 0.000000
vt 0.125000 0.250000
vt 0.375000 0.000000
vt 0.625000 0.000000
vt 0.625000 0.056369
vt 0.375000 0.056369
vt 0.375000 0.250000
vt 0.625000 0.250000
vt 0.625000 0.500000
vt 0.375000 0.500000
vt 0.125000 0.000000
vt 0.125000 0.056369
vt 0.375000 0.153308
vt 0.625000 0.153308
vt 0.125000 0.153308
vt 0.125000 0.250000
vt 0.375000 0.000000
vt 0.625000 0.000000
vt 0.625000 0.250000
vt 0.375000 0.250000
vt 0.125000 0.000000
vt 0.125000 0.250000
vt 0.375000 0.000000
vt 0.625000 0.000000
vt 0.625000 0.250000
vt 0.375000 0.250000
vt 0.125000 0.000000
vt 0.125000 0.250000
vt 0.375000 0.000000
vt 0.625000 0.000000
vt 0.625000 0.250000
vt 0.375000 0.250000
vt 0.125000 0.000000
vt 0.125000 0.250000
vt 0.375000 0.000000
vt 0.625000 0.000000
vt 0.625000 0.250000
vt 0.375000 0.250000
vt 0.125000 0.000000
vt 0.125000 0.250000
vt 0.437500 0.312500
vt 0.437500 0.688440
vt 0.468750 0.312500
vt 0.468750 0.688440
vt 0.500000 0.312500
vt 0.500000 0.688440
vt 0.531250 0.312500
vt 0.531250 0.688440
vt 0.562500 0.312500
vt 0.562500 0.688440
vn 0.000000 0.000000 1.000000
vn 0.000000 0.000000 1.000000
vn 0.000000 0.000000 1.000000
vn 0.000000 0.000000 1.000000
vn 0.000000 1.000000 0.000000
vn 0.000000 1.000000 0.000000
vn 0.000000 1.000000 0.000000
vn 0.000000 1.000000 0.000000
vn 0.000000 -1.000000 0.000000
vn 0.000000 -1.000000 0.000000
vn 0.000000 -1.000000 0.000000
vn 0.000000 -1.000000 0.000000
vn -1.000000 0.000000 0.000000
vn -1.000000 0.000000 0.000000
vn -1.000000 0.000000 0.000000
vn -1.000000 0.000000 0.000000
vn 0.000000 0.175357 0.984505
vn 0.000000 0.175357 0.984505
vn 0.000000 0.150458 0.988616
vn 0.000000 0.150458 0.988616
vn 0.000000 1.000000 0.000000
vn 0.000000 1.000000 0.000000
vn 0.000000 1.000000 0.000000
vn 0.000000 1.000000 0.000000
vn -0.984505 0.175357 0.000000
vn -0.984505 0.175357 0.000000
vn -0.988616 0.150458 0.000000
vn -0.988616 0.150458 0.000000
vn 0.000000 0.088492 0.996077
vn 0.000000 0.088492 0.996077
vn 0.000000 0.051398 0.998678
vn 0.000000 0.051398 0.998678
vn -0.996077 0.088493 0.000000
vn -0.996077 0.088493 0.000000
vn -0.998678 0.051399 0.000000
vn -0.998678 0.051399 0.000000
vn 0.000000 0.000000 1.000000
vn 0.000000 0.000000 1.000000
vn 0.000000 0.000000 1.000000
vn 0.000000 0.000000 1.000000
vn -1.000000 0.000000 0.000000
vn -1.000000 0.000000 0.000000
vn -1.000000 0.000000 0.000000
vn -1.000000 0.000000 0.000000
vn 0.000000 0.000000 1.000000
vn 0.000000 0.000000 1.000000
vn 0.000000 0.000000 1.000000
vn 0.000000 0.000000 1.000000
vn -1.000000 0.000000 0.000000
vn -1.000000 0.000000 0.000000
vn -1.000000 0.000000 0.000000
vn -1.000000 0.000000 0.000000
vn 0.000000 0.000000 1.000000
vn 0.000000 0.000000 1.000000
vn 0.000000 0.000000 1.000000
vn 0.000000 0.000000 1.000000
vn -1.000000 0.000000 0.000000
vn -1.000000 0.000000 0.000000
vn -1.000000 0.000000 0.000000
vn -1.000000 0.000000 0.000000
vn 0.000000 0.000000 1.000000
vn 0.000000 0.000000 1.000000
vn 0.000000 0.000000 1.000000
vn 0.000000 0.000000 1.000000
vn -1.000000 0.000000 0.000000
vn -1.000000 0.000000 0.000000
vn -1.000000 0.000000 0.000000
vn -1.000000 0.000000 0.000000
vn -0.923880 0.000000 -0.382683
vn -0.923880 0.000000 -0.382683
vn -0.923880 0.000000 -0.382683
vn -0.923880 0.000000 -0.382683
vn -0.923880 0.000000 0.382683
vn -0.923880 0.000000 0.382683
vn -0.923880 0.000000 0.382683
vn -0.923880 0.000000 0.382683
vn -0.382683 0.000000 0.923880
vn -0.382683 0.000000 0.923880
vn -0.382683 0.000000 0.923880
vn -0.382683 0.000000 0.923880
vn 0.382683 0.000000 0.923880
vn 0.382683 0.000000 0.923880
vn 0.382683 0.000000 0.923880
vn 0.382683 0.000000 0.923880
s off
g polySurface1
usemtl initialShadingGroup
f 1/1/1 2/2/2 4/4/3 3/3/4
f 3/3/5 4/4/6 6/6/7 5/5/8
f 7/7/9 8/8/10 2/10/11 1/9/12
f 7/11/13 1/1/14 3/3/15 5/12/16
s 1
f 9/13/17 10/14/18 19/15/19 20/16/20
s off
f 11/17/21 12/18/22 14/19/23 13/20/24
s 2
f 15/21/25 9/13/26 20/16/27 21/22/28
s 1
f 17/23/29 16/24/30 12/18/31 11/17/32
s 2
f 18/25/33 17/23/34 11/17/35 13/26/36
s 1
f 20/16/20 19/15/19 16/24/30 17/23/29
s 2
f 21/22/28 20/16/27 17/23/34 18/25/33
s off
f 22/27/37 23/28/38 25/29/39 24/30/40
f 27/31/41 22/27/42 24/30/43 26/32/44
f 28/33/45 29/34/46 31/35/47 30/36/48
f 33/37/49 28/33/50 30/36/51 32/38/52
f 34/39/53 35/40/54 37/41/55 36/42/56
f 39/43/57 34/39/58 36/42/59 38/44/60
f 40/45/61 41/46/62 43/47/63 42/48/64
f 45/49/65 40/45/66 42/48/67 44/50/68
f 46/51/69 47/53/70 52/54/71 51/52/72
f 47/53/73 48/55/74 53/56/75 52/54/76
f 48/55/77 49/57/78 54/58/79 53/56/80
f 49/57/81 50/59/82 55/60/83 54/58/84
